<svg version="1.1" xmlns="http://www.w3.org/2000/svg" xmlns:xlink="http://www.w3.org/1999/xlink" width="272.74684" height="191.42793" viewBox="0,0,272.74684,191.42793"><g transform="translate(3.21981,-48.37087)"><g data-paper-data="{&quot;isPaintingLayer&quot;:true}" fill-rule="nonzero" stroke-linecap="butt" stroke-linejoin="miter" stroke-miterlimit="10" stroke-dasharray="" stroke-dashoffset="0" style="mix-blend-mode: normal"><path d="M-2.21981,238.7988v-102.34235h250.63136v102.34235z" fill="#f8ff66" stroke="#000000" stroke-width="2"/><text transform="translate(9.89047,160.64451) scale(0.44748,0.44748)" font-size="40" xml:space="preserve" fill="#000000" fill-rule="nonzero" stroke="none" stroke-width="1" stroke-linecap="butt" stroke-linejoin="miter" stroke-miterlimit="10" stroke-dasharray="" stroke-dashoffset="0" font-family="Sans Serif" font-weight="normal" text-anchor="start" style="mix-blend-mode: normal"><tspan x="0" dy="0">Item 1 : HTML code</tspan><tspan x="0" dy="46.150000000000006px">Item 2 : Thumnail URL</tspan><tspan x="0" dy="46.150000000000006px">Item 3 : Cloudmonitor URL</tspan></text><path d="M236.98942,161.3164c0,10.01902 -7.52039,18.14104 -16.79726,18.14104c-9.27687,0 -16.79725,-8.12202 -16.79725,-18.14104c0,-10.01902 7.52039,-18.14104 16.79725,-18.14104c9.27687,0 16.79726,8.12202 16.79726,18.14104z" fill="#000000" stroke="none" stroke-width="0"/><text transform="translate(4.51535,228.03026) scale(0.43043,0.43043)" font-size="40" xml:space="preserve" fill="#d00000" fill-rule="nonzero" stroke="none" stroke-width="1" stroke-linecap="butt" stroke-linejoin="miter" stroke-miterlimit="10" stroke-dasharray="" stroke-dashoffset="0" font-family="Sans Serif" font-weight="normal" text-anchor="start" style="mix-blend-mode: normal"><tspan x="0" dy="0">HTML WORKS ONLINE ONLY</tspan></text><path d="M227.13279,153.92561c0,2.23739 -2.23739,2.23739 -2.23739,2.23739l-0.34319,-0.23621c-0.66597,0.26952 -1.5897,0.21733 -1.9979,0.80854c-0.8048,1.16562 -0.4789,2.90957 -1.34378,4.03134c-0.10479,0.13592 -0.22492,0.25323 -0.35657,0.35669c1.70938,2.27251 3.58464,4.22007 6.38582,5.58264l0.34319,-0.23621c0,0 2.23739,0 2.23739,2.23739c0,2.23739 -2.23739,2.23739 -2.23739,2.23739l-2.34438,-0.23621c-3.58077,-1.829 -6.05827,-4.32158 -8.29396,-7.32244c-1.77442,1.43107 -3.45116,3.15434 -3.24965,5.32125c0,0 0,2.23739 -2.23739,2.23739c-2.23739,0 -2.23739,-2.23739 -2.23739,-2.23739c0.05677,-1.18126 -0.34187,-2.47782 0.17031,-3.54377c0.15065,-0.31352 3.35626,-3.63593 5.09067,-5.3495c-0.88648,-1.2671 -1.93882,-2.4541 -2.47742,-3.89616c-0.38923,-1.04212 -0.064,-2.22395 -0.096,-3.33592c0,0 0,-2.23739 2.23739,-2.23739c2.23739,0 2.23739,2.23739 2.23739,2.23739c-0.07802,1.6573 0.82349,3.24745 1.76359,4.66195c0.4293,-1.10507 0.28455,-2.51 1.02767,-3.44033c0.804,-1.00656 2.25148,-1.25268 3.37721,-1.87903l2.34438,-0.23621c0,0 2.23739,0 2.23739,2.23739z" fill="#ff0000" stroke="none" stroke-width="0.5"/><path d="M264.52703,50.87087c0,-1.38071 1.11929,-2.5 2.5,-2.5c1.38071,0 2.5,1.11929 2.5,2.5c0,1.38071 -1.11929,2.5 -2.5,2.5c-1.38071,0 -2.5,-1.11929 -2.5,-2.5z" fill="#ff0000" stroke="none" stroke-width="0.5"/></g></g></svg>