<svg version="1.1" xmlns="http://www.w3.org/2000/svg" xmlns:xlink="http://www.w3.org/1999/xlink" width="61.17806" height="61.97159" viewBox="0,0,61.17806,61.97159"><defs><linearGradient x1="194.50011" y1="187.84341" x2="255.6775" y2="187.84341" gradientUnits="userSpaceOnUse" id="color-1"><stop offset="0.012" stop-color="#a7a9ac"/><stop offset="1" stop-color="#414042"/></linearGradient><linearGradient x1="196.79466" y1="187.84238" x2="253.38234" y2="187.84238" gradientUnits="userSpaceOnUse" id="color-2"><stop offset="0" stop-color="#d1d2d3"/><stop offset="1" stop-color="#a4a5a8"/></linearGradient></defs><g transform="translate(-194.49951,-156.85737)"><g data-paper-data="{&quot;isPaintingLayer&quot;:true}" fill-rule="nonzero" stroke="none" stroke-width="1" stroke-linecap="butt" stroke-linejoin="miter" stroke-miterlimit="10" stroke-dasharray="" stroke-dashoffset="0" style="mix-blend-mode: normal"><path d="M255.67757,209.07506c0,5.38647 -2.59096,9.7539 -5.78496,9.7539h-49.60881c-3.19467,0 -5.78429,-4.36858 -5.78429,-9.7539v-42.46492c0,-5.38647 2.58962,-9.75277 5.78429,-9.75277h49.60815c3.19601,0 5.78496,4.36631 5.78496,9.75277v42.46492z" fill="url(#color-1)"/><path d="M253.38173,166.61014v42.46379c0,3.24413 -1.56439,5.88294 -3.4898,5.88294h-49.60815c-1.92339,0 -3.48913,-2.63881 -3.48913,-5.88294v-42.46492c0,-3.24413 1.56574,-5.88294 3.48913,-5.88294h49.60815c1.92541,0 3.4898,2.63996 3.4898,5.88407z" fill="url(#color-2)"/><text transform="translate(199.64942,173.624) scale(0.32454,0.32454)" font-size="40" xml:space="preserve" fill="#000000" fill-rule="nonzero" stroke="none" stroke-width="1" stroke-linecap="butt" stroke-linejoin="miter" stroke-miterlimit="10" stroke-dasharray="" stroke-dashoffset="0" font-family="Sans Serif" font-weight="normal" text-anchor="start" style="mix-blend-mode: normal"><tspan x="0" dy="0">Compile</tspan></text><text transform="translate(197.73083,185.3847) scale(0.25414,0.25414)" font-size="40" xml:space="preserve" fill="#000000" fill-rule="nonzero" stroke="none" stroke-width="1" stroke-linecap="butt" stroke-linejoin="miter" stroke-miterlimit="10" stroke-dasharray="" stroke-dashoffset="0" font-family="Sans Serif" font-weight="normal" text-anchor="start" style="mix-blend-mode: normal"><tspan x="0" dy="0">TurboWrap</tspan></text></g></g></svg>