<svg version="1.1" xmlns="http://www.w3.org/2000/svg" xmlns:xlink="http://www.w3.org/1999/xlink" width="108.35288" height="34.12846" viewBox="0,0,108.35288,34.12846"><defs><linearGradient x1="194.50057" y1="173.38094" x2="302.85227" y2="173.38094" gradientUnits="userSpaceOnUse" id="color-1"><stop offset="0.012" stop-color="#a7a9ac"/><stop offset="1" stop-color="#414042"/></linearGradient><linearGradient x1="198.56447" y1="173.38039" x2="298.78729" y2="173.38039" gradientUnits="userSpaceOnUse" id="color-2"><stop offset="0" stop-color="#d1d2d3"/><stop offset="1" stop-color="#a4a5a8"/></linearGradient></defs><g transform="translate(-194.49951,-155.77579)"><g data-paper-data="{&quot;isPaintingLayer&quot;:true}" fill-rule="nonzero" stroke="none" stroke-width="1" stroke-linecap="butt" stroke-linejoin="miter" stroke-miterlimit="10" stroke-dasharray="" stroke-dashoffset="0" style="mix-blend-mode: normal"><path d="M302.85239,184.7029c0,2.87238 -4.58887,5.20135 -10.24578,5.20135h-87.86251c-5.6581,0 -10.24459,-2.32958 -10.24459,-5.20135v-22.64478c0,-2.87238 4.58649,-5.20075 10.24459,-5.20075h87.86132c5.66048,0 10.24578,2.32837 10.24578,5.20075v22.64478z" fill="url(#color-1)"/><path d="M298.78622,162.05812v22.64418c0,1.72996 -2.77071,3.13713 -6.18081,3.13713h-87.86132c-3.40653,0 -6.17962,-1.40717 -6.17962,-3.13713v-22.64478c0,-1.72996 2.77309,-3.13713 6.17962,-3.13713h87.86132c3.4101,0 6.18081,1.40778 6.18081,3.13773z" fill="url(#color-2)"/><text transform="translate(209.21335,169.89328) scale(0.32454,0.32454)" font-size="40" xml:space="preserve" fill="#000000" fill-rule="nonzero" stroke="none" stroke-width="1" stroke-linecap="butt" stroke-linejoin="miter" stroke-miterlimit="10" stroke-dasharray="" stroke-dashoffset="0" font-family="Sans Serif" font-weight="normal" text-anchor="start" style="mix-blend-mode: normal"><tspan x="0" dy="0">Stage </tspan><tspan x="0" dy="46.150000000000006px">Height</tspan></text></g></g></svg>