<svg version="1.1" xmlns="http://www.w3.org/2000/svg" xmlns:xlink="http://www.w3.org/1999/xlink" width="193.06096" height="33.04688" viewBox="0,0,193.06096,33.04688"><defs><linearGradient x1="192.43535" y1="173.72528" x2="385.4942" y2="173.72528" gradientUnits="userSpaceOnUse" id="color-1"><stop offset="0.012" stop-color="#a7a9ac"/><stop offset="1" stop-color="#414042"/></linearGradient><linearGradient x1="199.67632" y1="173.72473" x2="378.2513" y2="173.72473" gradientUnits="userSpaceOnUse" id="color-2"><stop offset="0" stop-color="#d1d2d3"/><stop offset="1" stop-color="#a4a5a8"/></linearGradient></defs><g transform="translate(-192.43346,-157.20171)"><g data-paper-data="{&quot;isPaintingLayer&quot;:true}" fill-rule="nonzero" stroke="none" stroke-width="1" stroke-linecap="butt" stroke-linejoin="miter" stroke-miterlimit="10" stroke-dasharray="" stroke-dashoffset="0" style="mix-blend-mode: normal"><path d="M385.49442,185.04724c0,2.87238 -8.17636,5.20135 -18.25572,5.20135h-156.55163c-10.08149,0 -18.2536,-2.32958 -18.2536,-5.20135v-22.64478c0,-2.87238 8.17211,-5.20075 18.2536,-5.20075h156.54951c10.08573,0 18.25572,2.32837 18.25572,5.20075v22.64478z" fill="url(#color-1)"/><path d="M378.2494,162.40246v22.64418c0,1.72996 -4.93679,3.13713 -11.01284,3.13713h-156.54951c-6.06969,0 -11.01072,-1.40717 -11.01072,-3.13713v-22.64478c0,-1.72996 4.94104,-3.13713 11.01072,-3.13713h156.54951c6.07605,0 11.01284,1.40778 11.01284,3.13773z" fill="url(#color-2)"/><text transform="translate(205.08125,177.4688) scale(0.32454,0.32454)" font-size="40" xml:space="preserve" fill="#000000" fill-rule="nonzero" stroke="none" stroke-width="1" stroke-linecap="butt" stroke-linejoin="miter" stroke-miterlimit="10" stroke-dasharray="" stroke-dashoffset="0" font-family="Sans Serif" font-weight="normal" text-anchor="start" style="mix-blend-mode: normal"><tspan x="0" dy="0">Project ID</tspan></text></g></g></svg>