<svg version="1.1" xmlns="http://www.w3.org/2000/svg" xmlns:xlink="http://www.w3.org/1999/xlink" width="173.38983" height="52.288" viewBox="0,0,173.38983,52.288"><defs><linearGradient x1="153.59023" y1="177.31206" x2="326.98006" y2="177.31206" gradientUnits="userSpaceOnUse" id="color-1"><stop offset="0" stop-color="#fbb040"/><stop offset="1" stop-color="#f15a29"/></linearGradient><linearGradient x1="160.09654" y1="177.31106" x2="320.47216" y2="177.31106" gradientUnits="userSpaceOnUse" id="color-2"><stop offset="0" stop-color="#ed7340"/><stop offset="0.5181" stop-color="#f4aa46"/><stop offset="1" stop-color="#f29746"/></linearGradient></defs><g transform="translate(-153.59037,-151.16836)"><g data-paper-data="{&quot;isPaintingLayer&quot;:true}" fill-rule="nonzero" stroke="none" stroke-width="1" stroke-linecap="butt" stroke-linejoin="miter" stroke-miterlimit="10" stroke-dasharray="" stroke-dashoffset="0" style="mix-blend-mode: normal"><path d="M326.9802,177.31236c0,14.415 -16.94886,26.144 -37.77875,26.144h-97.83666c-20.82845,0 -37.77442,-11.728 -37.77442,-26.144c0,-14.416 16.94452,-26.144 37.77442,-26.144h97.83666c20.8299,0 37.77731,11.727 37.77875,26.144z" fill="url(#color-1)"/><path d="M320.47231,177.31036c0,11.953 -13.99978,21.641 -31.27086,21.641h-97.83666c-17.26963,0 -31.26797,-9.688 -31.26797,-21.641v0c0,-11.951 13.99834,-21.64 31.26797,-21.64h97.83666c17.26963,0 31.27086,9.689 31.27086,21.64z" fill="url(#color-2)"/><text transform="translate(162.07732,184.17627) scale(0.5,0.5)" font-size="40" xml:space="preserve" fill="#000000" fill-rule="nonzero" stroke="none" stroke-width="1" stroke-linecap="butt" stroke-linejoin="miter" stroke-miterlimit="10" stroke-dasharray="" stroke-dashoffset="0" font-family="Sans Serif" font-weight="normal" text-anchor="start" style="mix-blend-mode: normal"><tspan x="0" dy="0">Encode as HTML</tspan></text></g></g></svg>