<svg version="1.1" xmlns="http://www.w3.org/2000/svg" xmlns:xlink="http://www.w3.org/1999/xlink" width="88.33531" height="78.65351" viewBox="0,0,88.33531,78.65351"><defs><linearGradient x1="158.66548" y1="198.09397" x2="246.99982" y2="198.09397" gradientUnits="userSpaceOnUse" id="color-1"><stop offset="0.012" stop-color="#66b3e3"/><stop offset="1" stop-color="#1c75bc"/></linearGradient></defs><g transform="translate(-158.66461,-158.76692)"><g data-paper-data="{&quot;isPaintingLayer&quot;:true}" fill-rule="nonzero" stroke="none" stroke-width="1" stroke-linecap="butt" stroke-linejoin="miter" stroke-miterlimit="10" stroke-dasharray="" stroke-dashoffset="0" style="mix-blend-mode: normal"><path d="M246.99992,225.0409c0,6.83644 -3.7411,12.37952 -8.35293,12.37952h-71.63041c-4.6128,0 -8.35196,-5.54453 -8.35196,-12.37952v-53.89589c0,-6.83644 3.73916,-12.37809 8.35196,-12.37809h71.62944c4.61474,0 8.35293,5.54166 8.35293,12.37809v53.89589z" fill="url(#color-1)"/><path d="M241.19714,171.14501v53.89445c0,4.11739 -2.19274,7.46656 -4.89149,7.46656h-69.53347c-2.69593,0 -4.89055,-3.34916 -4.89055,-7.46656v-53.89589c0,-4.11739 2.19462,-7.46656 4.89055,-7.46656h69.53347c2.69875,0 4.89149,3.35061 4.89149,7.468z" fill="#27aae1"/><text transform="translate(168.57862,181.58216) scale(0.5,0.5)" font-size="40" xml:space="preserve" fill="#000000" fill-rule="nonzero" stroke="none" stroke-width="1" stroke-linecap="butt" stroke-linejoin="miter" stroke-miterlimit="10" stroke-dasharray="" stroke-dashoffset="0" font-family="Sans Serif" font-weight="normal" text-anchor="start" style="mix-blend-mode: normal"><tspan x="0" dy="0">Read </tspan><tspan x="0" dy="48px">the </tspan><tspan x="0" dy="48px">Guide</tspan></text></g></g></svg>